<svg xmlns="http://www.w3.org/2000/svg" width="60" height="60" viewBox="0 0 60 60">
    <g fill="none" fill-rule="evenodd">
        <rect width="60" height="60" fill="#FC0" rx="15"/>
        <path fill="#000" fill-rule="nonzero" d="M14.323 27.261l4.862 2.018a28.119 28.119 0 0 0-1.308 4.266l-.184.839 6.971 6.98.839-.18c1.453-.323 2.879-.76 4.263-1.31l2.016 4.867a.314.314 0 0 0 .516.1l3.047-3.05a5.036 5.036 0 0 0 1.467-3.812l-.109-1.96c5.643-4.169 11.352-11.48 12.907-24.24a2.098 2.098 0 0 0-2.351-2.366C34.51 10.98 27.2 16.699 23.033 22.328l-1.953-.1a5.028 5.028 0 0 0-3.81 1.447l-3.048 3.05a.315.315 0 0 0 .1.536zm19.55-7.433a3.771 3.771 0 0 1 5.333.006 3.777 3.777 0 0 1 0 5.336 3.771 3.771 0 0 1-6.442-2.668c0-1.003.4-1.965 1.11-2.674zm-20.46 22.094a4.948 4.948 0 0 0-2.515-.201.453.453 0 0 1-.42-.126.457.457 0 0 1-.092-.516c.893-1.921 3.262-5.785 7.55-2.664a.214.214 0 0 1 0 .319 4.662 4.662 0 0 0-1.773 3.817.34.34 0 0 0 .327.327 4.652 4.652 0 0 0 3.814-1.736.214.214 0 0 1 .332 0c.595.709 2.234 3.024.419 5.26a4.715 4.715 0 0 1-3.16 1.678c-1.761.189-5.014.763-6.343 2.282a.457.457 0 0 1-.788-.168c-.47-1.602-1.2-5.185 2.649-8.272z"/>
    </g>
</svg>
