<?xml version="1.0" encoding="UTF-8"?>
<svg width="20px" height="20px" viewBox="0 0 20 20" version="1.1" xmlns="http://www.w3.org/2000/svg" xmlns:xlink="http://www.w3.org/1999/xlink">
    <!-- Generator: Sketch 48.2 (47327) - http://www.bohemiancoding.com/sketch -->
    <title>i-bike</title>
    <desc>Created with Sketch.</desc>
    <defs></defs>
    <g id="Events" stroke="none" stroke-width="1" fill="none" fill-rule="evenodd" transform="translate(-61.000000, -374.000000)">
        <g id="spot-logo" transform="translate(61.000000, 111.000000)" fill="#ADADAD">
            <path d="M4.69333333,263 L15.2533333,263 C17.8453898,263 19.9466667,265.101277 19.9466667,267.693333 L19.9466667,278.253333 C19.9466667,280.84539 17.8453898,282.946667 15.2533333,282.946667 L4.69333333,282.946667 C2.10127691,282.946667 -5.70743059e-16,280.84539 -8.8817842e-16,278.253333 L0,267.693333 C-3.17435361e-16,265.101277 2.10127691,263 4.69333333,263 Z M8.59594203,269.26807 C9.18760708,269.26807 9.66724638,268.784224 9.66724638,268.187368 C9.66724638,267.590513 9.18760708,267.106667 8.59594203,267.106667 C8.00427698,267.106667 7.52463768,267.590513 7.52463768,268.187368 C7.52463768,268.784224 8.00427698,269.26807 8.59594203,269.26807 Z M13.0713414,272.41528 C13.2532591,272.231766 13.3427045,271.990444 13.3400518,271.749979 C13.3421944,271.5888 13.3028112,271.424911 13.2171409,271.275191 C13.1464008,271.151579 13.0516499,271.050748 12.9423428,270.974996 L10.9069666,268.921834 C10.897818,268.912742 10.8899957,268.905332 10.8820715,268.89799 C10.8654068,268.882551 10.8603733,268.878331 10.8554079,268.874009 C10.8479598,268.867559 10.8405117,268.861109 10.8329275,268.854933 C10.7444344,268.78347 10.6486972,268.731871 10.5483347,268.69818 C10.5320781,268.692794 10.5197326,268.688986 10.507353,268.685452 C10.4858589,268.679619 10.4759281,268.677046 10.4658953,268.674679 C10.440218,268.669087 10.4319876,268.667372 10.4237233,268.665862 C10.4165813,268.664524 10.4094392,268.663358 10.4022632,268.662225 C10.3951552,268.661093 10.3880131,268.659995 10.3808711,268.659 C10.3729809,268.657903 10.3650566,268.656976 10.3571664,268.656153 C10.3291084,268.653408 10.3210481,268.652859 10.3130218,268.652379 C10.2849639,268.651075 10.2773117,268.650904 10.2696595,268.650801 C10.2622114,268.650732 10.2547633,268.650698 10.2473492,268.650766 C10.218543,268.651521 10.2100746,268.651933 10.2015722,268.652448 C10.1751467,268.654437 10.1653519,268.655364 10.1555911,268.656462 C10.1321244,268.659343 10.1209693,268.660956 10.1098481,268.662774 C10.0894423,268.666274 10.0770288,268.66871 10.0646153,268.671386 C10.0471683,268.675228 10.0337685,268.678522 10.0204027,268.68209 C9.97727845,268.693754 9.93592271,268.708164 9.89551923,268.725627 C9.88160928,268.731699 9.86905971,268.737463 9.85668019,268.743535 C9.84076367,268.75146 9.82984657,268.757121 9.8190315,268.763057 C9.80008812,268.773761 9.79121159,268.778873 9.7824371,268.784259 C9.75951459,268.798805 9.75308676,268.802888 9.74676097,268.807177 C9.73866667,268.812632 9.73070841,268.818327 9.72275014,268.824056 C9.70118802,268.839872 9.69067903,268.848106 9.6803401,268.856546 C9.62997179,268.897853 9.58596329,268.941973 9.54630802,268.991102 C9.53824773,269.001051 9.53164986,269.009868 9.52501797,269.01872 C9.5117542,269.036526 9.50831923,269.041672 9.50481623,269.046784 C9.49903459,269.05512 9.49325295,269.063457 9.48777739,269.071931 C9.47641816,269.089943 9.46941217,269.101402 9.46274628,269.112998 C9.46263291,269.113181 9.0796161,269.782416 8.31369585,271.120702 L6.75942029,271.120736 C6.50584425,271.120702 6.30032386,271.328059 6.30028986,271.583894 C6.30028986,271.83966 6.50587826,272.047018 6.75942029,272.047018 L8.59594203,272.047018 C8.75449507,272.046434 8.90866087,271.963821 8.993617,271.81537 L9.79318415,270.418314 L11.1375521,271.774509 L9.74390415,272.590559 C9.49155246,272.737466 9.35364329,273.007504 9.36153353,273.282071 L9.36115942,276.36979 C9.36115942,276.710846 9.63524329,276.987334 9.97333333,276.987334 C10.3114234,276.987334 10.5855072,276.710846 10.5855072,276.36979 L10.5855072,273.882838 L12.7131177,272.638762 C12.8440209,272.594779 12.9671018,272.520399 13.0713414,272.41528 Z M5.84115942,272.973333 C4.23522319,272.973333 2.93333333,274.286575 2.93333333,275.906667 C2.93333333,277.526759 4.23522319,278.84 5.84115942,278.84 C7.44716367,278.84 8.74898551,277.526759 8.74898551,275.906667 C8.74898551,274.286575 7.44716367,272.973333 5.84115942,272.973333 Z M5.84115942,278.06807 C4.65782725,278.06807 3.69855072,277.100413 3.69855072,275.906667 C3.69855072,274.71292 4.65782725,273.745263 5.84115942,273.745263 C7.0245256,273.745263 7.98376812,274.71292 7.98376812,275.906667 C7.98376812,277.100413 7.0245256,278.06807 5.84115942,278.06807 Z M14.1055072,272.973333 C12.499537,272.973333 11.1976812,274.286575 11.1976812,275.906667 C11.1976812,277.526759 12.499537,278.84 14.1055072,278.84 C15.7115115,278.84 17.0133333,277.526759 17.0133333,275.906667 C17.0133333,274.286575 15.7115115,272.973333 14.1055072,272.973333 Z M14.1055072,278.06807 C12.9221751,278.06807 11.9628986,277.100413 11.9628986,275.906667 C11.9628986,274.71292 12.9221751,273.745263 14.1055072,273.745263 C15.2888734,273.745263 16.2481159,274.71292 16.2481159,275.906667 C16.2481159,277.100413 15.2888734,278.06807 14.1055072,278.06807 Z" id="i-bike"></path>
        </g>
    </g>
</svg>