<?xml version="1.0" encoding="UTF-8"?>
<svg width="20px" height="20px" viewBox="0 0 20 20" version="1.1" xmlns="http://www.w3.org/2000/svg" xmlns:xlink="http://www.w3.org/1999/xlink">
    <!-- Generator: Sketch 48.2 (47327) - http://www.bohemiancoding.com/sketch -->
    <title>i-run</title>
    <desc>Created with Sketch.</desc>
    <defs></defs>
    <g id="Events" stroke="none" stroke-width="1" fill="none" fill-rule="evenodd" transform="translate(-61.000000, -224.000000)">
        <g id="spot-logo" transform="translate(61.000000, 111.000000)" fill="#ADADAD">
            <path d="M4.69333333,113 L15.3066667,113 C17.8987231,113 20,115.101277 20,117.693333 L20,128.306667 C20,130.898723 17.8987231,133 15.3066667,133 L4.69333333,133 C2.10127691,133 2.35671807e-15,130.898723 8.8817842e-16,128.306667 L8.8817842e-16,117.693333 C5.70743059e-16,115.101277 2.10127691,113 4.69333333,113 Z M11.8955793,121.441874 C11.9509734,121.542275 11.9912108,121.604275 12.0211182,121.671255 C12.1343424,121.924747 12.2467094,122.178797 12.3547009,122.43471 C12.4495655,122.659482 12.6076733,122.799959 12.8446771,122.830354 C13.4559069,122.908692 14.0666406,122.993546 14.6796296,123.053405 C15.0150617,123.086127 15.2309995,122.90185 15.262982,122.611074 C15.2983476,122.289811 15.1197602,122.061547 14.7748552,122.010206 C14.3287251,121.943785 13.8814672,121.884717 13.433623,121.83184 C13.2815598,121.81392 13.1885446,121.74545 13.1284592,121.600598 C12.9865456,121.258435 12.8149953,120.927955 12.6929748,120.578811 C12.544746,120.154493 12.2913224,119.845379 11.9064506,119.638666 C11.6353894,119.493115 11.3863865,119.281189 11.1003039,119.193031 C10.5761349,119.031421 10.0345537,118.923434 9.49450617,118.827083 C9.30676163,118.793569 9.06438984,118.796734 8.91187559,118.892853 C8.31602802,119.268389 7.74196819,119.681675 7.17066002,120.096776 C7.07087844,120.169295 6.99094492,120.309307 6.95878205,120.433819 C6.90469611,120.642812 6.97267569,120.836538 7.15726258,120.961236 C7.34496201,121.087982 7.54628443,121.086632 7.73258547,120.965658 C8.05051519,120.759225 8.3610019,120.540503 8.67333808,120.324946 C9.33928538,119.865394 9.3389245,119.864882 10.1187274,120.054838 C10.4135161,120.126659 10.4293495,120.161103 10.2662797,120.412873 C9.87378443,121.019 9.4730793,121.619589 9.08838794,122.230929 C8.95860874,122.437223 8.85066239,122.662368 8.76215812,122.891004 C8.64613723,123.190763 8.71109449,123.477955 8.91958927,123.713014 C9.03957977,123.848278 9.18456078,123.964598 9.33224834,124.068256 C9.8727018,124.447563 10.4150499,124.82445 10.9653371,125.18835 C11.1567355,125.314956 11.1824027,125.441469 11.0898837,125.649206 C10.7666762,126.374911 10.4538438,127.105643 10.1454772,127.838237 C9.9725736,128.24901 10.087151,128.607184 10.4246581,128.767676 C10.7613984,128.927796 11.1062132,128.774379 11.2835375,128.369565 C11.701339,127.415549 12.1153965,126.459765 12.5247626,125.501886 C12.7007787,125.089904 12.6139435,124.792146 12.2541524,124.533534 C11.7978276,124.205568 11.3416833,123.876951 10.877735,123.560714 C10.7142593,123.449282 10.6973433,123.349114 10.8016358,123.182431 C11.1153704,122.680754 11.4166548,122.170791 11.7251116,121.66553 C11.7667925,121.597293 11.8218708,121.53776 11.8955793,121.441874 Z M8.22842593,124.063741 C8.10446581,124.238104 7.96598053,124.410326 7.85262108,124.598699 C7.73551757,124.793264 7.58219136,124.858242 7.36435897,124.854938 C6.71081671,124.844977 6.05686847,124.844604 5.40337132,124.857544 C5.01065052,124.865364 4.75312203,125.131609 4.756415,125.486666 C4.7597982,125.847773 5.01899573,126.117463 5.39994302,126.121186 C6.25643162,126.129565 7.11305556,126.124119 7.96963438,126.12356 C8.2037963,126.123421 8.398217,126.023113 8.53462726,125.834042 C8.71835708,125.57934 8.8922982,125.315794 9.04981956,125.043404 C9.08356125,124.985128 9.05965337,124.840415 9.01016857,124.790424 C8.77054843,124.548243 8.51320038,124.324727 8.22842593,124.063741 Z M12.8788248,119.198709 C13.4471106,119.20234 13.9083523,118.739901 13.9067284,118.168125 C13.9050594,117.582245 13.4615005,117.122273 12.8951994,117.119108 C12.3172151,117.115896 11.8664387,117.578661 11.8673409,118.174409 C11.8681529,118.735945 12.3215907,119.195125 12.8788248,119.198709 Z" id="i-run"></path>
        </g>
    </g>
</svg>