<?xml version="1.0" encoding="UTF-8"?>
<svg width="20px" height="20px" viewBox="0 0 20 20" version="1.1" xmlns="http://www.w3.org/2000/svg" xmlns:xlink="http://www.w3.org/1999/xlink">
    <!-- Generator: Sketch 48.2 (47327) - http://www.bohemiancoding.com/sketch -->
    <title>i-week_separator</title>
    <desc>Created with Sketch.</desc>
    <defs></defs>
    <g id="Events" stroke="none" stroke-width="1" fill="none" fill-rule="evenodd" transform="translate(-61.000000, -174.000000)">
        <g id="spot-logo" transform="translate(61.000000, 111.000000)" fill="#ADADAD">
            <path d="M4.69333333,63 L15.3066667,63 C17.8987231,63 20,65.1012769 20,67.6933333 L20,78.3066667 C20,80.8987231 17.8987231,83 15.3066667,83 L4.69333333,83 C2.10127691,83 2.35671807e-15,80.8987231 8.8817842e-16,78.3066667 L8.8817842e-16,67.6933333 C5.70743059e-16,65.1012769 2.10127691,63 4.69333333,63 Z M14.6615385,71.9106145 L15,70.3743017 L13.2769231,70.3743017 L13.7538462,68 L12.0307692,68 L11.5846154,70.3743017 L9.32307692,70.3743017 L9.76923077,68 L8.06153846,68 L7.61538462,70.3743017 L5.90769231,70.3743017 L5.56923077,71.9106145 L7.32307692,71.9106145 L6.87692308,74.2290503 L5.33846154,74.2290503 L5,75.7653631 L6.58461538,75.7653631 L6.15384615,78 L7.87692308,78 L8.30769231,75.7653631 L10.5692308,75.7653631 L10.1384615,78 L11.8461538,78 L12.2769231,75.7653631 L14.1076923,75.7653631 L14.4461538,74.2290503 L12.5538462,74.2290503 L13,71.9106145 L14.6615385,71.9106145 Z M11.3916715,72 L10.9354561,74.2916965 L8.70000076,74.2916965 L9.15621615,72 L11.3916715,72 Z" id="i-week_separator"></path>
        </g>
    </g>
</svg>